<svg xmlns="http://www.w3.org/2000/svg" width="120" height="42"><g transform="matrix(.99377 0 0 .99367 -177.693 0)"><path fill="#aab2ab" d="M181.966.51 296.03.714c1.594 0 3.017-.236 3.017 3.181l-.14 37.567h-119.82V3.754c0-1.685.163-3.243 2.879-3.243"/><path d="M297.296 0H181.067a2.264 2.264 0 0 0-2.26 2.26v39.497c0 .282.228.51.51.51h119.73a.51.51 0 0 0 .511-.51V2.261A2.264 2.264 0 0 0 297.296 0M181.067 1.021h116.23c.683 0 1.24.556 1.24 1.24v27.45h-83.345c-3.045 5.505-8.91 9.244-15.643 9.244-6.736 0-12.6-3.735-15.644-9.245h-4.077V2.26a1.24 1.24 0 0 1 1.24-1.239"/><path fill="#fff" d="M253.078 32.956q.475 0 .87.084.391.084.673.275.28.191.434.508.154.318.154.784 0 .504-.229.84t-.678.55q.618.177.923.621t.305 1.07q0 .502-.197.873-.196.368-.528.601a2.3 2.3 0 0 1-.758.346 3.4 3.4 0 0 1-.875.112h-3.236v-6.664zm-.188 2.695q.393 0 .646-.186.252-.186.252-.605a.8.8 0 0 0-.084-.381.63.63 0 0 0-.225-.234 1 1 0 0 0-.322-.116 2 2 0 0 0-.378-.032h-1.374v1.554zm.086 2.828q.215 0 .411-.041.196-.044.347-.14a.7.7 0 0 0 .238-.267.9.9 0 0 0 .089-.428q0-.513-.29-.733-.29-.218-.767-.219h-1.6v1.828zm2.813-5.523h1.643l1.56 2.632 1.551-2.632h1.634l-2.473 4.106v2.558h-1.47v-2.595z"/><g transform="translate(50.125 143.214)scale(.87292)"><path fill="#fff" d="M186.9-141.46c.006 8.68-7.027 15.721-15.707 15.727s-15.722-7.027-15.728-15.708v-.019c-.005-8.68 7.028-15.722 15.709-15.727 8.68-.005 15.722 7.028 15.727 15.709z"/><path d="M183.96-154.262q5.228 5.229 5.228 12.802 0 7.575-5.138 12.668-5.453 5.364-12.89 5.364-7.347 0-12.664-5.32-5.319-5.317-5.319-12.712 0-7.393 5.319-12.802 5.183-5.23 12.665-5.23 7.572 0 12.799 5.23m-23.118 2.345q-4.42 4.464-4.42 10.462t4.375 10.37q4.374 4.375 10.417 4.375 6.042 0 10.506-4.419 4.24-4.103 4.24-10.326 0-6.177-4.308-10.485-4.305-4.305-10.438-4.306-6.134 0-10.372 4.329m7.755 8.703q-.675-1.473-2.024-1.473-2.383 0-2.383 3.21 0 3.208 2.383 3.208 1.575 0 2.249-1.565l2.203 1.173q-1.575 2.799-4.726 2.799-2.43 0-3.892-1.49-1.464-1.49-1.463-4.108 0-2.573 1.508-4.085 1.507-1.513 3.758-1.513 3.33 0 4.77 2.623zm10.363 0q-.677-1.473-1.982-1.473-2.433 0-2.433 3.21 0 3.208 2.433 3.208 1.576 0 2.207-1.565l2.252 1.173q-1.572 2.799-4.718 2.799-2.427 0-3.886-1.49t-1.46-4.108q0-2.573 1.483-4.085 1.481-1.513 3.774-1.513 3.324 0 4.76 2.623z"/></g><circle cx="255.551" cy="15.313" r="10.807" fill="#fff"/><path d="M258.678 12.187a.754.754 0 0 0-.753-.754h-4.773a.754.754 0 0 0-.753.754v4.773h1.33v5.652h3.618V16.96h1.331z"/><circle cx="255.539" cy="9.172" r="1.633"/><path fill-rule="evenodd" d="M255.524 3.407q-4.85 0-8.208 3.384-3.446 3.501-3.446 8.285 0 4.783 3.446 8.226 3.447 3.442 8.208 3.442 4.82 0 8.353-3.471 3.33-3.296 3.33-8.197 0-4.902-3.387-8.285-3.39-3.384-8.296-3.384m.03 2.1q3.972 0 6.746 2.801 2.804 2.77 2.804 6.768 0 4.025-2.745 6.68-2.892 2.859-6.806 2.859-3.916 0-6.747-2.83-2.834-2.83-2.833-6.71t2.862-6.767q2.745-2.8 6.718-2.801" clip-rule="evenodd"/></g></svg>